<svg id="visual" viewBox="0 0 960 540" width="960" height="540" xmlns="http://www.w3.org/2000/svg" xmlns:xlink="http://www.w3.org/1999/xlink" version="1.1"><path d="M0 404L26.7 416.8C53.3 429.7 106.7 455.3 160 459C213.3 462.7 266.7 444.3 320 435.7C373.3 427 426.7 428 480 439.7C533.3 451.3 586.7 473.7 640 486.2C693.3 498.7 746.7 501.3 800 499.8C853.3 498.3 906.7 492.7 933.3 489.8L960 487L960 541L933.3 541C906.7 541 853.3 541 800 541C746.7 541 693.3 541 640 541C586.7 541 533.3 541 480 541C426.7 541 373.3 541 320 541C266.7 541 213.3 541 160 541C106.7 541 53.3 541 26.7 541L0 541Z" fill="#121212" stroke-linecap="round" stroke-linejoin="miter"></path></svg>